<?xml version="1.0" encoding="UTF-8"?>
<svg id="Layer_1" data-name="Layer 1" xmlns="http://www.w3.org/2000/svg" viewBox="0 0 200 150">
  <defs>
    <style>
      .cls-1, .cls-2 {
        fill: #4e4e4e;
      }

      .cls-3 {
        fill: #009a4b;
      }

      .cls-2 {
        fill-rule: evenodd;
      }

      .cls-4 {
        fill: #4b494a;
      }
    </style>
  </defs>
  <path class="cls-1" d="M84.9,36.33c.02.09.05.26.21.39.15.12.31.13.38.12,0,0,0,0,0,0-.05,0-.21.04-.3.18-.06.09-.06.19-.05.24,0,.04,0,.13.06.24.09.17.26.24.37.28.06.03.12.05.2.08.12.04.24.09.4.08.22-.01.38-.11.45-.17.17.03.42.06.72.04-.04.16.3.49.87.8,0,.07-.02.14-.03.21-.02.14-.02.27.08.33,0,0,.01,0,.02.01.02,0,.04,0,.06,0,.09,0,.14-.09.16-.21,0-.05.01-.1.02-.15.06.06.12.11.18.15-.01.08-.02.15-.03.23-.02.15-.02.28.07.34,0,0,.01,0,.02.01.02,0,.04,0,.06,0,.08,0,.14-.09.16-.21.33.45.8,1.09,1.01,1.57.44,1.03.88,2.54,1.04,3.1l.06.22c0,.3,1.79,4.44,1.84,4.56.2.45,2.53,3.63,3.85,4.67,1.31,1.03,2.4,1.36,2.96,1.52,1.01.3,1.96.37,2.78.34,0,.2,0,.4.02.6-.12.44-.19.98-.08,1.59.11.62.37,1.13.68,1.54-.04.17-.09.32-.12.44-.33,1.07-.86,1.01-1.6,2.43-.48.93-.43,1.3-1.07,2.22-.24.35-.24.29-.76.97-.81,1.06-1.38,1.51-1.33,2.05,0,.02,0,.05,0,.08-.37.18-.83.41-1.02.68-.38.52-.56,1.14-.61,1.42-1.3,1.54-3.48,3.99-4.79,5.54-.58.25-.92.4-1.29.69-.92-.26-1.91-.76-2.37-.29-.08.08-.91,1.06-.73,1.26.53.54,1.52,1.11,2.4,1.56l.12.28s.11-.09.18-.13c.04.02.07.04.11.05.29.14.98.15,1.14.11,0-.11.45-.89.61-.97v-.11c.43-.23.83-.39.96-.67,1.23-1.81,1.64-2.55,2.55-3.67.1-.12,1.13-1.85,2.8-2.65,1.06-.51,1.38-.93,2.1-1.86.14-.07.89-1.48,1.2-1.96.52-.79.83-.99,1.61-1.73.85-.8.74-.86,1.58-1.68.68-.66,1.09-.72,1.81-1.23.86.36,1.72.52,2.49.62.22.4.4.86,1.04,1.57.71.79,1.09.88,1.74,1.83.25.36.19.34.65,1.08.72,1.16.95,1.86,1.48,2.01.03,0,.06.02.09.04-.01.39-.02.83.11,1.1.28.6.75,1.06.97,1.24.74,1.93,1.87,5.09,2.61,7.01-.06.61-.09.98-.02,1.42-.9.21-1.9.31-2.06.92-.03.11-.26,1.41,0,1.48.87.24,2.29.19,3.39.1.33-.03.94-.37,1.07-.49-.03-.06-.05-.46-.03-.78.05-.06.09-.09.12-.08-.03-.08-.06-.15-.08-.23,0,0,0,0,0-.01,0,0,.01,0,.02,0,0,0,0-.01-.01-.02,0-.02.01-.04.02-.05l-.08-.1c-.21-.96.11-1.87-.2-2.3-1.02-2-1.48-2.72-2.04-4.09-.06-.15-1.11-1.92-1-3.81.07-1.2-.17-2.05-.86-2.94-.58-.59-1.09-1.39-1.44-1.86-.57-.78-.64-1.15-1.07-2.17-.13-.32-.23-.54-.32-.71,4.39-.54,8.86-3.42,11.3-3.41.29.07.61.15.95.24.03.34.06.65.12.92.17.68,1.04,2.91,1.32,3.22.46.49.74.78,1.24,1.09.62.38,4.29,1.96,4.88,2.43,1.67,1.31,3.61,3.24,3.84,3.5.02.39.05.84.16,1.37.5,2.41.6,4.3.25,6.47-.1.63-.93,1.88-1.03,2.32,0,.23,0,.44,0,.62-.16,0-.33.26-.52.51-.22.28-.81,1.25-.81,1.77,0,.34.33,1.02.42,1.1,0,0,1.78-.59,3.47-2.55.15-.18-.24-.53-.44-.81-.15-.2-.31-.33-.44-.43.01-.14,1.45-1.49,1.88-2.11.18-.26-.69-6.02-.43-9.89,1.51.99,3.05,2.43,3.49,2.81.29.42.57,1.07,1.19,1.84,1.55,1.91,2.5,3.53,3.19,5.6.2.6.05,2.06.16,2.49.11.2.21.39.29.55-.14.08-.17.37-.23.68-.06.34-.14,1.45.1,1.91.16.3.76.75.88.79,0,0,1.29-1.29,1.88-3.76.05-.22-.45-.36-.76-.52-.23-.11-.42-.16-.58-.19-.05-.13.58-1.95.68-2.68.04-.33-3.63-5.41-5.05-8.98l.03-.04c-2.53-.74-4.86-3.37-6.86-5.83-1.24-1.52-3.52-5.51-3.63-7.49l-.22-.31c.05-.1.1-.21.16-.31.03-.06.05-.12.08-.18.02,0,.05.01.07.02,0,0,.01,0,.02,0,.19.05.4.12.63.22.33.15.59.32.8.45.07.05.15.11.22.16.61.54.95,1.63,1.79,2.08.51.28,1.9-.14,2.27.1h.02c.53.38.61.65,1.08,1,.02.02.04.03.06.05,0,0,0,0,.01,0,.4.27.68.34,1.7.67,0,0,0,0,0,0,1.11.38,2.37.74,2.41.53.02-.13-.61-.31-1.44-.69,0,0,1.5.04,1.15-.02-.55-.09-1.36-1.5-2.96-2.45-.5-.29-3.3.56-4.02-.13-.42-.4-1.62-2.09-2.57-2.48-.4-.16-.79-.24-1.14-.27-.6-.73-2.19-2.45-2.73-2.89-.59-.48-1.34-1.75-2.28-2.37-1.06-.7-2.29-.52-2.93-.79-1.74-.72-1.28-.12-2.37-.76-1.43-.84-2.36-2.19-3.47-2.23-5.06-.2-7.65.88-9.09,1.15-1.21.23-2.39.64-4.14,2.06-.21.09-.4.17-.54.24-.32.16-.68.28-1.05.36-1.25.03-3.85-.12-4.87-.34-1.43-.31-2.89-2.23-3.37-3.13-.18-.22-.38-.54-.58-.94.14-.04.36-.48.33-.57-.04-.12-.4-.17-.41-.24,0-.05.11-.28.11-.36,0-.08-.12-.15-.16-.27-.14-.44.1-.11,0-.46-.05-.18-.33-.06-.34-.18-.01-.09.06-.32.05-.45,0-.14-.13-.16-.19-.37-.07-.23.06-.38,0-.5-.07-.12-.23-.17-.34-.33-.1-.14.1-.35,0-.51-.04-.08-.2-.27-.57-.28.06-.05.12-.11.12-.2,0-.19-.26-.36-.25-.48.01-.09.19-.14.22-.26.03-.14-.19-.19-.2-.42,0-.24.2-.24.17-.38-.04-.14-.3-.19-.37-.38-.06-.17.08-.42.04-.61-.02-.09-.06-.33-.37-.47,0-.2.02-.4.06-.57.21-.17.31-.15.4-.3.11-.18,0-.26.1-.44.12-.24.33-.21.45-.47.02-.05.08-.18.03-.29-.07-.13-.28-.14-.42-.14-.07,0-.61,0-.96.24,0,0,0,0,0,0,0,0,0,0,0,0,0,0-.02-.04-.08-.08,0,0,0,0,0,0,0,0,0,0,0,0,0,0,0,0,0,0,0,0,0,0,0,0-.03-.02-.06-.03-.1-.04-.07-.03-.16-.07-.25-.12,0,0-.02-.01-.03-.02-.14-.1-.23-.26-.4-.33-.43-.28-.75-.19-1.13-.2-.12-.01-.21-.02-.28-.03-.27-.05-.37-.12-.6-.07-.21.04-.22.11-.42.17-.13.04-.25.05-.38.03,0,0-.01,0-.02,0,.03-.07.04-.13,0-.19,0,0,0,0,0,0-.03-.03-.06-.06-.1-.07-.03,0-.05-.01-.08,0-.05,0-.1.04-.13.09-.02.03-.04.07-.06.1-.08-.02-.15-.04-.22-.06.04-.07.06-.14,0-.21,0,0,0,0,0,0-.03-.03-.06-.06-.1-.07-.03,0-.05-.01-.08-.01-.05,0-.1.04-.13.09-.02.03-.04.06-.05.09-.08-.03-.18-.06-.3-.09-.04-.01-.09-.02-.14-.03,0,0,0,0,0,0,0,0,0,0,0,0h-.01c-.72-.14-1.32-.14-1.46-.15-.46-.02-.7-.03-.92.09-.36.2-.6.44-.6.44-.04.04-.1.11-.2.16-.16.09-.23.05-.31.12-.11.1-.03.21-.12.41-.06.12-.11.11-.39.38-.25.24-.29.33-.31.38-.05.16-.03.3-.02.36M85.95,36.86h0s0,0,0,0Z"/>
  <path class="cls-3" d="M80.77,83.28c49.25,12.48,75.54,5.4,88.56-2.01-15.3,3.78-38.46,4.58-72.74-4.11-37.04-9.38-57.46-1.42-65.92,3.69,11.28-2.57,27.63-3.26,50.1,2.43"/>
  <path class="cls-4" d="M80.34,88.16c-22.56-6.17-38.47-4.84-48.94-1.75,10.09-1.9,23.96-1.92,42.31,3.17,30.04,8.34,50.71,7.94,64.66,4.54-13.77,1.87-32.59.99-58.03-5.96"/>
  <path class="cls-1" d="M64.72,65.37l-4.59,3.72-.02-.03c-.37-.47-.43-.69-.41-.78.26-.02.54-.09.69-.21.31-.25.34-.74.06-1.09-.28-.36-.76-.45-1.07-.2-.13.11-.24.32-.28.41-.46,1.05-.36,1.84.19,2.52,0,0,.02.02.03.04l-.83.67c-1.16.93-1.56-.52-1.56-.52-.5-1.23-1.88-.46-1.88-.46-1.49.77-.77,1.79-.77,1.79,1.79,3.47,5.18.85,5.18.85l1.04-.82s.06.07.06.08c.54.68,1.29.97,2.42.76.1-.01.33-.07.47-.17.31-.25.34-.73.05-1.09-.28-.36-.76-.44-1.08-.2-.15.12-.28.38-.36.62-.1,0-.3-.11-.67-.58l-.06-.08,4.98-3.92c9.83-8.41,16.08-7.54,16.08-7.54-7.9-2.86-17.67,6.23-17.67,6.23"/>
  <path class="cls-1" d="M64.7,65.37l4.59,3.72.02-.03c.37-.47.43-.69.41-.78-.26-.02-.54-.09-.69-.21-.31-.25-.34-.74-.06-1.09.28-.36.76-.45,1.07-.2.13.11.24.32.27.41.46,1.05.36,1.84-.18,2.52,0,0-.02.02-.03.04l.83.67c1.16.93,1.56-.52,1.56-.52.5-1.23,1.88-.46,1.88-.46,1.49.77.77,1.79.77,1.79-1.79,3.47-5.18.85-5.18.85l-1.04-.82s-.06.07-.06.08c-.54.68-1.29.97-2.41.76-.1-.01-.33-.07-.47-.17-.31-.25-.34-.73-.05-1.09.28-.36.76-.44,1.08-.2.15.12.28.38.36.62.1,0,.3-.11.67-.58l.06-.08-4.98-3.92c-9.83-8.41-16.08-7.54-16.08-7.54,7.9-2.86,17.67,6.23,17.67,6.23"/>
  <path class="cls-2" d="M68.74,44.21c2.36.18,4.75.51,7.08,1.02-2.4-1.56-4.99-2.55-7.64-3.01,2.1-1.01,4.32-1.96,6.56-2.66-2.67-.15-5.23.22-7.6,1.03,1.22-1.74,2.56-3.42,4-4.99-2.16,1.09-4.03,2.51-5.6,4.17-.18-2.65-.47-5.15-.85-7.43-.39,2.29-.68,4.82-.86,7.5-1.59-1.67-3.47-3.11-5.6-4.24,1.36,1.45,2.73,3.16,4.06,5.06-2.41-.81-5-1.18-7.66-1.1,2.05.63,4.33,1.6,6.61,2.7-2.67.47-5.28,1.47-7.69,2.97,2.14-.49,4.57-.85,7.16-1.04-2.11,1.75-3.9,3.95-5.26,6.49,1.72-1.6,3.8-3.23,6.13-4.77-1.14,2.76-1.68,5.81-1.58,8.94.81-2.66,2.05-5.62,3.65-8.59.03,4.66.41,13.84,1.04,17.59.64-3.74,1.01-12.92,1.04-17.58,1.44,2.71,2.7,5.61,3.64,8.58.17-3.16-.38-6.17-1.52-8.9,2.12,1.41,4.18,2.99,6.07,4.72-1.31-2.58-3.08-4.75-5.18-6.47"/>
  <path class="cls-3" d="M37.79,108.28c0-.1.05-.15.15-.15h1.41c.1,0,.15.05.15.15v2.43c0,.3.11.54.34.7.23.16.53.24.92.24h.17c.2,0,.35.06.46.17.1.11.15.3.15.56,0,.29-.05.5-.14.61-.1.11-.25.17-.46.17-.3,0-.58-.03-.81-.09-.24-.06-.44-.19-.61-.39v.17c0,.58-.09,1.08-.27,1.52-.18.43-.43.8-.76,1.08-.33.29-.72.5-1.18.64-.46.14-.96.21-1.52.21s-1.03-.07-1.48-.21c-.45-.14-.84-.36-1.18-.64-.33-.29-.59-.65-.78-1.08-.19-.44-.28-.95-.28-1.53,0-.55.09-1.09.26-1.64.17-.55.38-1.02.64-1.41.05-.09.13-.1.23-.03l1.23.49c.05.02.08.05.08.08,0,.04,0,.07-.02.11-.16.28-.32.61-.46.99-.15.38-.22.8-.22,1.25,0,.39.06.73.19.99.13.27.29.48.49.64.2.16.42.27.66.34.24.07.48.1.71.1.58,0,1.05-.15,1.41-.46.36-.31.54-.81.54-1.49v-4.5ZM35.48,107.37c-.1,0-.15-.05-.15-.15v-1.3c0-.1.05-.15.15-.15h1.46c.1,0,.15.05.15.15v1.3c0,.1-.05.15-.15.15h-1.46Z"/>
  <path class="cls-3" d="M41.74,107.81c.31-.35.69-.65,1.12-.88.44-.23.97-.35,1.6-.35.68,0,1.25.1,1.7.31.46.21.82.49,1.09.83.27.35.47.75.59,1.21.12.46.17.95.17,1.46,0,.07,0,.14,0,.2,0,.06,0,.12,0,.18.03.27.15.49.37.64.22.15.51.23.89.23h.26c.2,0,.35.06.46.17.1.11.15.3.15.56,0,.29-.05.5-.14.61-.1.11-.25.17-.46.17-.43,0-.8-.06-1.12-.17-.32-.11-.56-.35-.74-.73-.19.34-.46.58-.8.71-.34.13-.75.19-1.24.19h-4.69c-.2,0-.35-.06-.46-.17-.1-.12-.15-.31-.15-.58,0-.29.05-.49.14-.59.1-.1.25-.15.46-.15h4.04c.26,0,.48-.02.64-.06.16-.04.29-.11.38-.21.09-.1.15-.24.18-.4.03-.17.05-.37.05-.61,0-.32-.03-.62-.09-.9-.06-.27-.16-.51-.3-.71-.14-.2-.33-.36-.55-.48-.23-.12-.51-.17-.86-.17s-.64.07-.91.2c-.27.13-.52.31-.73.53-.07.07-.14.08-.21.02l-.79-.82c-.08-.08-.09-.15-.03-.21M43.94,116.03c-.1,0-.15-.05-.15-.15v-1.3c0-.1.05-.15.15-.15h1.46c.1,0,.15.05.15.15v1.3c0,.1-.05.15-.15.15h-1.46Z"/>
  <path class="cls-3" d="M48.91,112.39c0-.29.05-.49.14-.59.1-.1.25-.15.46-.15h1.49v-1.73c0-.62.09-1.14.26-1.56.17-.42.4-.77.68-1.03.28-.26.6-.45.97-.57.37-.12.75-.17,1.15-.17.46,0,.88.06,1.26.17.38.12.72.3.99.54.28.24.5.56.65.95.16.39.24.86.24,1.4,0,.38-.06.76-.17,1.14-.11.37-.23.66-.36.86h1.55c.21,0,.37.05.46.15.1.1.14.3.14.59,0,.27-.05.47-.15.58-.1.12-.25.17-.46.17h-1.47c.21.29.32.65.32,1.06,0,.7-.27,1.23-.8,1.61-.53.37-1.25.56-2.17.56-.47,0-.89-.04-1.27-.13-.38-.09-.71-.22-.98-.41-.27-.19-.48-.43-.63-.73-.15-.3-.22-.66-.22-1.08v-.88h-1.49c-.4,0-.61-.25-.61-.76M54.08,108.1c-.43,0-.76.14-1.01.43-.25.28-.37.7-.37,1.24v1.9h1.5c.23,0,.43-.05.6-.16.17-.11.3-.24.41-.41.11-.17.18-.36.24-.58.05-.22.08-.44.08-.68,0-.58-.12-1.01-.37-1.3-.25-.29-.61-.44-1.07-.44M54.08,114.91c.48,0,.81-.08,1.01-.23.2-.15.3-.37.3-.65,0-.15-.02-.29-.05-.4-.04-.12-.11-.22-.21-.3-.11-.08-.25-.14-.44-.18-.19-.04-.43-.06-.72-.06h-1.26v.8c0,.68.46,1.02,1.38,1.02"/>
  <path class="cls-3" d="M58.95,111.64c.25,0,.44-.06.55-.17.12-.12.17-.33.17-.63v-7.86c0-.1.05-.15.15-.15h1.41c.1,0,.15.05.15.15v7.72c0,.3.11.54.34.7.23.16.53.24.92.24h.26c.2,0,.35.06.46.17.1.11.15.3.15.56,0,.29-.05.5-.14.61-.1.11-.25.17-.46.17-.4,0-.74-.05-1.03-.14-.29-.1-.53-.31-.7-.63-.14.28-.35.48-.62.6-.27.12-.63.17-1.09.17h-1.28c-.2,0-.35-.05-.46-.14-.1-.1-.15-.31-.15-.63,0-.27.05-.46.14-.57.1-.11.25-.16.46-.16h.74Z"/>
  <path class="cls-3" d="M62.92,113.15c-.2,0-.35-.05-.46-.14-.1-.1-.15-.29-.15-.58s.05-.48.14-.6c.1-.12.25-.17.46-.17h.74c.25,0,.44-.06.55-.17.12-.12.17-.33.17-.63v-7.86c0-.1.05-.15.15-.15h1.41c.1,0,.15.05.15.15v8.25c0,.66-.14,1.14-.41,1.45-.27.31-.73.46-1.37.46h-1.41Z"/>
  <path class="cls-3" d="M72.93,111.54c0,.38.07.71.21.96.14.26.32.46.55.61.22.15.48.26.76.32.28.06.57.09.87.09h3.02c.59,0,.99-.08,1.21-.23.22-.16.33-.35.33-.58,0-.15-.08-.3-.25-.46-.17-.15-.38-.31-.64-.48-.26-.17-.53-.35-.83-.54-.29-.19-.57-.41-.83-.66-.26-.25-.47-.53-.64-.83-.17-.31-.25-.67-.25-1.07,0-.36.07-.71.21-1.02.14-.32.34-.6.6-.83.26-.24.57-.42.93-.56.36-.14.77-.21,1.23-.21.7,0,1.26.11,1.68.33.42.22.78.5,1.07.86.06.07.05.14-.05.21l-.82.8c-.08.06-.15.06-.21-.02-.21-.21-.44-.38-.68-.49-.24-.12-.54-.17-.9-.17s-.65.09-.92.28c-.27.19-.4.46-.4.83,0,.24.09.47.26.67.17.2.39.4.65.59.26.19.54.39.84.59.3.2.58.42.84.64.26.23.47.48.65.74.17.27.26.57.26.92,0,.3-.06.59-.17.86-.11.27-.29.51-.53.72-.24.21-.56.37-.94.49-.38.12-.85.17-1.38.17h-3.54c-1.32,0-2.3-.3-2.94-.91-.64-.61-.96-1.43-.96-2.47,0-.55.09-1.09.26-1.64.17-.55.38-1.02.64-1.41.05-.09.13-.1.23-.03l1.23.48c.05.02.08.05.08.08,0,.04,0,.07-.02.11-.16.28-.32.61-.46.99-.15.38-.22.8-.22,1.25M74.93,117.67c-.1,0-.15-.05-.15-.15v-1.3c0-.1.05-.15.15-.15h1.28c.1,0,.15.05.15.15v1.3c0,.1-.05.15-.15.15h-1.28ZM76.91,117.67c-.1,0-.15-.05-.15-.15v-1.3c0-.1.05-.15.15-.15h1.28c.1,0,.15.05.15.15v1.3c0,.1-.05.15-.15.15h-1.28Z"/>
  <path class="cls-3" d="M89.4,110.55c0,.51-.05.92-.14,1.25-.09.33-.23.59-.41.8-.18.2-.42.34-.7.42-.28.08-.62.12-1,.12h-3.52c-.1,0-.15-.05-.15-.15v-1.2c0-.1.05-.15.15-.15h2.83c.27,0,.49-.02.65-.06.16-.04.29-.11.37-.2.09-.1.14-.22.17-.37.03-.15.04-.34.04-.56v-1.02c0-.89-.52-1.34-1.55-1.34h-1.82c-.1,0-.15-.05-.15-.15v-1.21c0-.1.05-.15.15-.15h2.43c.81,0,1.46.22,1.94.66.48.44.72,1.12.72,2.06v1.26Z"/>
  <path class="cls-3" d="M92.31,116.21c-.1,0-.15-.05-.15-.15v-1.21c0-.1.05-.15.15-.15h1.78c.23,0,.44-.02.61-.07.17-.05.31-.12.43-.23.11-.11.2-.27.26-.47.06-.2.09-.46.09-.77h-1.53c-.48,0-.9-.05-1.27-.16-.37-.11-.68-.28-.93-.53-.25-.25-.45-.57-.58-.96-.14-.39-.21-.88-.21-1.46,0-.62.09-1.15.26-1.59.17-.44.4-.8.68-1.08.28-.28.61-.48.99-.61.37-.13.77-.19,1.19-.19.46,0,.87.06,1.25.18.38.12.71.31.98.58.27.26.49.61.64,1.03.15.42.23.95.23,1.56v1.71h1.05c.2,0,.35.06.46.17.1.11.15.3.15.56,0,.32-.05.53-.14.63-.1.1-.25.14-.46.14h-1.05v.33c0,.95-.24,1.64-.71,2.08-.48.44-1.17.65-2.08.65h-2.05ZM94.08,108.1c-.46,0-.81.17-1.07.52-.26.34-.39.8-.39,1.38,0,.64.13,1.07.39,1.3.26.23.63.35,1.12.35h1.35v-1.73c0-.6-.11-1.05-.33-1.36-.22-.31-.58-.46-1.06-.46"/>
  <path class="cls-3" d="M102.46,106.58c1.16,0,2.02.22,2.55.65.54.44.81,1.01.81,1.71,0,.3-.05.59-.14.86-.1.27-.22.52-.37.74-.15.23-.32.43-.52.61-.19.18-.38.33-.56.46.08.02.17.03.27.03h2.21c.23,0,.39.06.47.18.08.12.12.32.12.61s-.05.47-.14.57c-.1.1-.25.14-.45.14h-2.26c-.36,0-.71-.03-1.04-.1-.33-.07-.64-.19-.93-.37-.33.18-.69.31-1.06.37-.37.07-.71.1-1,.1h-2.19c-.19,0-.34-.05-.44-.15-.1-.1-.15-.29-.15-.56s.03-.46.1-.59c.07-.13.23-.2.49-.2h1.78c.16,0,.34,0,.55-.02.2-.02.44-.05.71-.11-.08-.33-.19-.62-.33-.86-.14-.24-.29-.46-.46-.64-.17-.19-.36-.35-.55-.5-.2-.15-.4-.29-.6-.43-.11-.08-.17-.15-.19-.22-.02-.07-.02-.14-.02-.22v-.96c0-.11.1-.23.29-.36.19-.13.45-.25.76-.36.31-.11.67-.19,1.08-.27.4-.07.82-.11,1.25-.11M102.69,111.16c.16-.1.33-.22.49-.36.17-.14.31-.3.44-.46.13-.17.23-.35.31-.54.08-.19.12-.39.12-.59,0-.41-.15-.7-.45-.86-.3-.16-.68-.24-1.15-.24-.4,0-.76.04-1.06.12-.3.08-.5.15-.62.21.47.29.86.68,1.19,1.15.33.47.56,1,.71,1.58"/>
  <path class="cls-3" d="M110.35,110.7c0,.32.08.56.25.71.17.15.43.23.8.23.25,0,.45-.02.6-.05.15-.04.26-.11.33-.22.07-.11.11-.26.13-.46.01-.19.02-.45.02-.77v-1.94c0-.1.05-.15.15-.15h1.41c.1,0,.15.05.15.15v2.53c0,.31.1.54.29.69.19.15.45.22.76.22.23,0,.42-.02.56-.05.14-.04.25-.11.33-.21.08-.11.12-.26.14-.45.02-.2.03-.45.03-.77v-3.16c0-.1.05-.15.15-.15h1.41c.1,0,.15.05.15.15v3.7c0,.3.11.54.34.7.23.16.53.24.92.24h.26c.2,0,.35.06.46.17.1.11.15.3.15.56,0,.29-.05.5-.15.61-.1.11-.25.17-.46.17-.39,0-.74-.05-1.03-.14-.29-.1-.52-.31-.69-.63-.14.28-.35.48-.62.6-.27.12-.63.17-1.09.17h-.65c-.36,0-.66-.07-.9-.2-.25-.14-.44-.33-.57-.58-.14.29-.35.5-.62.61-.27.12-.63.17-1.09.17h-.67c-.72,0-1.21-.27-1.47-.8-.14.29-.35.5-.62.62-.27.12-.63.18-1.09.18h-1.64c-.11,0-.21,0-.3-.02-.09,0-.17-.04-.23-.08-.06-.05-.11-.11-.14-.21-.03-.09-.05-.22-.05-.38,0-.3.05-.52.14-.64.1-.12.25-.18.46-.18h1.22c.18,0,.32-.03.42-.08.1-.06.17-.14.21-.27.05-.12.07-.28.08-.46,0-.19,0-.42,0-.69v-1.94c0-.1.05-.15.15-.15h1.41c.1,0,.15.05.15.15v2.5Z"/>
  <path class="cls-3" d="M119.54,113.15c-.2,0-.35-.05-.46-.14-.1-.1-.15-.29-.15-.58s.05-.48.14-.6c.1-.12.25-.17.46-.17h.74c.25,0,.44-.06.55-.17.12-.12.17-.33.17-.63v-7.86c0-.1.05-.15.15-.15h1.41c.1,0,.15.05.15.15v8.25c0,.66-.14,1.14-.41,1.45-.27.31-.73.46-1.37.46h-1.41Z"/>
  <path class="cls-3" d="M124.85,102.83h1.41c.08,0,.15.07.15.15v10.01c0,.08-.07.15-.15.15h-1.41c-.08,0-.15-.07-.15-.15v-10.01c0-.08.07-.15.15-.15Z"/>
  <path class="cls-3" d="M137.67,110.55c0,.51-.05.92-.14,1.25-.09.33-.23.59-.41.8-.18.2-.41.34-.7.42-.28.08-.62.12-1,.12h-3.52c-.1,0-.15-.05-.15-.15v-1.2c0-.1.05-.15.15-.15h2.83c.27,0,.49-.02.65-.06.16-.04.29-.11.37-.2.09-.1.14-.22.17-.37.03-.15.04-.34.04-.56v-1.02c0-.89-.52-1.34-1.55-1.34h-1.82c-.1,0-.15-.05-.15-.15v-1.21c0-.1.05-.15.15-.15h2.43c.81,0,1.46.22,1.94.66.48.44.72,1.12.72,2.06v1.26Z"/>
  <path class="cls-3" d="M139.45,102.98c0-.1.05-.15.15-.15h1.41c.1,0,.15.05.15.15v7.86c0,.3.06.51.17.63.12.12.3.17.55.17h.53c.2,0,.35.06.46.17.1.12.15.32.15.6,0,.31-.05.51-.14.6-.1.09-.25.13-.46.13h-1.2c-.64,0-1.09-.15-1.37-.46-.27-.31-.41-.79-.41-1.45v-8.25Z"/>
  <path class="cls-3" d="M143.23,107.81c.31-.35.69-.65,1.12-.88.44-.23.97-.35,1.6-.35.68,0,1.25.1,1.7.31.46.21.82.49,1.09.83.27.35.47.75.59,1.21.12.46.17.95.17,1.46,0,.07,0,.14,0,.2,0,.06,0,.12,0,.18.03.27.15.49.37.64.22.15.51.23.89.23h.26c.2,0,.35.06.46.17.1.11.15.3.15.56,0,.29-.05.5-.14.61-.1.11-.25.17-.46.17-.43,0-.8-.06-1.12-.17-.32-.11-.56-.35-.74-.73-.19.34-.46.58-.8.7-.34.13-.75.19-1.24.19h-4.69c-.2,0-.35-.06-.46-.17-.1-.12-.15-.31-.15-.58,0-.29.05-.49.14-.59.1-.1.25-.15.46-.15h4.04c.26,0,.48-.02.64-.06.16-.04.29-.11.38-.21.09-.1.15-.24.18-.4.03-.17.05-.37.05-.61,0-.32-.03-.62-.09-.9-.06-.27-.16-.51-.3-.71-.14-.2-.33-.36-.55-.48-.23-.12-.51-.17-.86-.17s-.64.07-.91.2c-.27.13-.52.31-.73.53-.07.07-.14.08-.21.02l-.79-.82c-.08-.08-.09-.15-.03-.21"/>
  <path class="cls-3" d="M151.01,113.15c-.2,0-.35-.05-.46-.14-.1-.1-.15-.28-.15-.55,0-.29.05-.5.14-.62.1-.12.25-.18.46-.18h.99c.25,0,.44-.06.55-.17.12-.12.17-.33.17-.63v-3.84c0-.1.05-.15.15-.15h1.41c.1,0,.15.05.15.15v4.23c0,.66-.14,1.14-.41,1.45-.27.31-.73.46-1.37.46h-1.66ZM151.95,105.33c-.1,0-.15-.05-.15-.15v-1.3c0-.1.05-.15.15-.15h1.28c.1,0,.15.05.15.15v1.3c0,.1-.05.15-.15.15h-1.28ZM153.93,105.33c-.1,0-.15-.05-.15-.15v-1.3c0-.1.05-.15.15-.15h1.28c.1,0,.15.05.15.15v1.3c0,.1-.05.15-.15.15h-1.28Z"/>
  <path class="cls-3" d="M160.63,111.64h1.58c.25,0,.44-.06.55-.17.12-.12.17-.33.17-.63v-7.86c0-.1.05-.15.15-.15h1.41c.1,0,.15.05.15.15v8.25c0,.66-.14,1.14-.41,1.45-.27.31-.73.46-1.37.46h-6.67c-.1,0-.15-.05-.15-.15v-1.2c0-.1.05-.15.15-.15h2.7v-6.52c0-.1.05-.15.15-.15h1.41c.1,0,.15.05.15.15v6.52Z"/>
  <path class="cls-3" d="M166.78,102.83h1.41c.08,0,.15.07.15.15v10.01c0,.08-.07.15-.15.15h-1.41c-.08,0-.15-.07-.15-.15v-10.01c0-.08.07-.15.15-.15Z"/>
</svg>