<?xml version="1.0" encoding="UTF-8"?>
<svg id="Layer_1" data-name="Layer 1" xmlns="http://www.w3.org/2000/svg" viewBox="0 0 200 150">
  <defs>
    <style>
      .cls-1 {
        fill: #2b2764;
      }

      .cls-2 {
        fill: #08af9b;
      }

      .cls-3 {
        fill: #757d91;
      }
    </style>
  </defs>
  <polygon class="cls-1" points="33.14 64.8 48.59 49.35 17.68 49.35 17.68 64.8 17.68 80.25 2.23 95.7 33.14 95.7 33.14 80.25 33.14 80.25 33.14 64.8"/>
  <polygon class="cls-2" points="33.14 64.8 33.14 80.25 33.14 80.25 48.59 80.25 48.59 49.35 33.14 64.8"/>
  <polygon class="cls-2" points="2.23 95.7 17.68 80.25 17.68 64.8 2.23 64.8 2.23 95.7"/>
  <rect class="cls-3" x="103.26" y="70.09" width="3.15" height="3.15"/>
  <rect class="cls-3" x="98.16" y="70.09" width="3.15" height="3.15"/>
  <path class="cls-3" d="M91.85,62.28c0-1.85-.36-3.52-1.31-4.53-1.13-1.19-2.72-1.69-4.76-1.69h-6.36v-1.56h-2.94v12.78h-4.7c-1.33,0-2.67-.2-3.44-.86-.7-.59-.94-1.56-.94-2.88v-6.63h-3.44v7.01c0,1.83.41,3.63,1.51,4.67,1.38,1.31,3.12,1.85,5.81,1.85h8.15v-2.82h12.42v-5.35ZM88.7,64.47h-9.26v-5.27h6.68c.81,0,1.59.38,1.98.88.41.52.61,1.17.61,2.07v2.32h0Z"/>
  <polygon class="cls-3" points="107.9 54.93 104.74 54.93 104.74 64.47 98.4 64.47 98.4 49.35 95.25 49.35 95.25 67.63 107.9 67.63 107.9 54.93"/>
  <rect class="cls-3" x="127.27" y="49.35" width="3.15" height="18.28"/>
  <rect class="cls-3" x="83.05" y="50.36" width="3.14" height="3.14"/>
  <rect class="cls-3" x="185.14" y="49.35" width="3.15" height="3.2"/>
  <rect class="cls-3" x="194.57" y="70.12" width="3.15" height="3.15"/>
  <path class="cls-3" d="M146.66,67.63h51.07v-12.68h-3.15v9.54h-6.28v-9.54h-3.15v9.54h-16.83l-.03-15.14h-3.15l.03,15.14h-17.92c-1.33,0-2.59-.2-3.36-.86-.7-.59-.94-1.56-.94-2.88v-3.89h-3.49v4.28c0,1.83.4,3.63,1.51,4.67,1.38,1.31,3.04,1.83,5.73,1.83h-.01Z"/>
  <path class="cls-3" d="M157.36,58.2h-3.33v-1.27c0-.48.11-.84.32-1.1.2-.24.44-.35.75-.35h1.74v-1.83h-1.54c-.99,0-1.77.31-2.31.94-.53.6-.79,1.48-.79,2.6v2.84h5.17v-1.83h0Z"/>
  <path class="cls-3" d="M114.42,67.63h9.47v-18.28h-3.15v15.12h-6.28v-9.54h-3.16v12.29c0,1.56-.42,2.21-1.69,2.21-.4,0-.76-.04-1.21-.14v3.1c.39.1.99.19,1.55.19,2.98,0,4.31-1.49,4.48-4.95h0Z"/>
  <path class="cls-3" d="M78.3,82.18c0-2.98-2.03-5.85-7.07-5.85h-7.26v19.37h3.44v-7.65h3.42l4.73,7.65h3.87l-5.06-8.12c2.89-.96,3.94-3.18,3.94-5.4h0ZM70.46,85.07h-3.06v-5.54h3.06c2.84,0,4.21.79,4.21,2.72,0,2.25-1.68,2.82-4.21,2.82Z"/>
  <path class="cls-3" d="M109.84,82.55c-1.75,0-3.45.45-4.46.94l-.4,3.2c1.23-.61,3.14-1.12,4.44-1.12,1.73,0,2.91.4,2.91,1.84v.18c-.94-.13-1.79-.18-2.47-.18-3.43,0-5.87,1.46-5.87,4.28,0,3.09,2.82,4.19,5.98,4.19,1.86,0,3.9-.36,5.49-.99v-7.35c0-3.67-2.38-5-5.63-5h0ZM112.33,92.7c-.67.23-1.52.36-2.31.36-1.54,0-2.76-.4-2.76-1.57s1.35-1.62,2.93-1.62c.7,0,1.54.11,2.13.27v2.55h0Z"/>
  <path class="cls-3" d="M127.29,82.73c-.85-.11-1.62-.18-2.17-.18-4.3,0-7.13,2.93-7.13,6.7s2.71,6.64,7.37,6.64c1.81,0,3.52-.23,5.06-.65v-17.79h-3.14v5.29ZM127.29,92.57c-.7.15-1.35.25-1.95.25-2.47,0-4.05-1.12-4.05-3.56s1.59-3.63,4.05-3.63c.56,0,1.19.07,1.95.27v6.68h0Z"/>
  <path class="cls-3" d="M98.16,92.25c-.92.27-1.68.34-2.36.34-1.75,0-2.49-.7-2.49-3.01v-6.61h-3.16v7.51c0,4.15,2.28,5.18,5.49,5.18.8,0,1.66-.09,2.51-.27v.27c0,1.48-1.37,2.11-3.29,2.11-.92,0-2.25-.23-3.38-.56v3c1,.26,2.38.45,3.24.45,5,0,6.57-1.54,6.57-6.01v-11.68h-3.14v9.28h0Z"/>
  <path class="cls-3" d="M162.68,82.55c-1.75,0-3.45.45-4.46.94l-.4,3.2c1.23-.61,3.14-1.12,4.44-1.12,1.73,0,2.91.4,2.91,1.84v.18c-.94-.13-1.79-.18-2.47-.18-3.43,0-5.87,1.46-5.87,4.28,0,3.09,2.82,4.19,5.98,4.19,1.86,0,3.9-.36,5.49-.99v-7.35c0-3.67-2.38-5-5.63-5h0ZM165.17,92.7c-.67.23-1.52.36-2.3.36-1.54,0-2.76-.4-2.76-1.57s1.35-1.62,2.93-1.62c.7,0,1.54.11,2.13.27v2.55Z"/>
  <path class="cls-3" d="M176.54,82.63c-1.37,0-3.72.29-5.67.65v12.42h3.14v-9.75c.9-.15,1.73-.25,2.4-.25,1.86,0,2.82.7,2.82,3v6.99h3.14v-7.89c0-4.15-2.6-5.18-5.82-5.18h0Z"/>
  <polygon class="cls-3" points="191.74 89.34 197.47 83.08 193.76 83.08 188.07 89.29 188.07 77.53 184.93 77.53 184.93 95.7 188.07 95.7 188.07 89.47 194.01 95.7 197.77 95.7 191.74 89.34"/>
  <path class="cls-3" d="M150.56,85.29c1.84-.81,2.7-2.46,2.7-4.08,0-2.72-2.17-4.87-7-4.87h-6.8v19.37h7.76c3.53,0,7.05-1.62,7.05-5.68,0-1.96-1.1-3.94-3.7-4.73h0ZM142.9,79.53h3.15c2.63,0,3.65.93,3.65,2.27,0,1.57-1.12,2.34-3.65,2.34h-3.15v-4.61ZM146.74,92.5h-3.84v-5.14h3.75c2.53,0,4.06.55,4.06,2.58,0,1.77-1.27,2.55-3.97,2.55Z"/>
  <rect class="cls-3" x="83.05" y="83.08" width="3.14" height="12.62"/>
  <rect class="cls-3" x="83.05" y="77.43" width="3.14" height="3.14"/>
</svg>