<?xml version="1.0" encoding="UTF-8"?>
<svg id="Layer_1" data-name="Layer 1" xmlns="http://www.w3.org/2000/svg" viewBox="0 0 200 150">
  <defs>
    <style>
      .cls-1 {
        fill: #4f008c;
      }
    </style>
  </defs>
  <path id="path885" class="cls-1" d="M83.43,39.67v14.86h14.53v-14.86h-14.53ZM97.96,54.53v14.09h14.53v-14.09h-14.53ZM97.96,68.62h-14.53v24.99c0,5.06,1.54,9.14,4.29,12,3.08,3.08,7.6,4.73,13.21,4.73s9.8-1.76,11.56-3.3v-11.89c-1.32.99-3.96,2.2-7.37,2.2-2.42,0-4.18-.55-5.5-1.76-1.1-1.1-1.65-2.97-1.65-5.5v-21.46ZM52.06,52.88c-6.71,0-12.33,2.2-16.18,5.72-3.3,3.08-5.17,7.27-5.17,11.89,0,4.07,1.32,7.48,3.96,10.13,2.64,2.64,6.49,4.62,11.56,5.83l8.37,1.98c4.18.99,6.05,2.53,6.05,5.28,0,3.41-3.08,5.39-8.15,5.39-3.63,0-6.6-1.21-8.48-3.19-1.32-1.32-2.09-3.08-2.2-5.06l-12.55,2.75c.33,3.74,2.09,7.05,4.73,9.69,4.18,4.4,10.9,7.05,18.49,7.05s13.43-2.31,17.39-6.16c2.97-2.97,4.73-6.94,4.73-11.56,0-4.18-1.54-7.93-4.4-10.79-2.86-2.86-6.93-4.95-12.11-5.94l-8.48-1.65c-3.52-.66-5.5-2.42-5.5-4.84,0-3.19,3.08-5.39,8.04-5.39,3.08,0,5.72.99,7.49,2.75,1.1,1.21,1.87,2.75,2.09,4.51l12.22-2.75c-.33-3.52-1.98-6.6-4.51-9.14-3.96-3.96-10.13-6.49-17.39-6.49ZM144.96,52.88c-7.81,0-14.86,2.97-19.92,8.04-5.06,5.17-8.14,12.33-8.14,20.69s3.19,15.52,8.37,20.69c5.06,5.06,12.22,8.04,20.14,8.04s14.42-2.97,18.71-7.15c3.41-3.3,5.5-7.15,6.6-11.12l-12.88-4.29c-.55,1.98-1.65,4.07-3.41,5.72-2.09,1.98-4.95,3.41-9.02,3.41-3.74,0-7.27-1.43-9.8-3.96-2.53-2.64-4.07-6.49-4.07-11.34s1.54-8.7,4.07-11.34c2.53-2.53,5.94-3.85,9.69-3.85,3.96,0,6.72,1.32,8.7,3.3,1.65,1.65,2.64,3.74,3.3,5.83l13.1-4.4c-.99-3.85-3.08-7.71-6.16-10.9-4.4-4.29-10.79-7.37-19.26-7.37Z"/>
</svg>